<svg id="Wheelchair_symbol" xmlns="http://www.w3.org/2000/svg" width="22" height="25.105" viewBox="0 0 22 25.105">
  <path id="Path_235" data-name="Path 235" d="M110.487,4.467a2.239,2.239,0,1,0-2.457-2.229,2.324,2.324,0,0,0,.28,1.084l.8,11.221,8.213,0,3.369,7.893,4.423-1.734-.685-1.631-2.475.893-3.259-7.525-7.636.051-.1-1.421,5.528,0v-2.1l-5.739,0Z" transform="translate(-103.112)" fill-rule="evenodd"/>
  <path id="Path_236" data-name="Path 236" d="M15.635,217.219a8.364,8.364,0,0,1-7.382,4.545A8.233,8.233,0,0,1,4.821,206.04l.187,2.437a5.989,5.989,0,1,0,9.167,5.753Z" transform="translate(0 -196.659)" fill-rule="evenodd"/>
</svg>
